<svg data-v-423bf9ae="" xmlns="http://www.w3.org/2000/svg" viewBox="0 0 654 90" class="iconLeftSlogan"><!----><!----><!----><g data-v-423bf9ae="" id="a34bb737-02d8-4a45-90d9-d02eb891a9eb" fill="#ffffff" transform="matrix(5.607476711273193,0,0,5.607476711273193,207.37208557128906,-0.22429873049259186)"><path d="M7.24 3.74L9.25 10.74L10.26 10.50L12.85 1.76L14.08 1.30L13.97 0.70L11.13 0.70L11.03 1.30L12.25 1.76L10.05 9.16L10.05 8.18L7.81 0.46L7.20 0.70L4.69 9.16L4.69 8.18L2.83 1.76L4.05 1.30L3.93 0.70L0.15 0.70L0.06 1.30L1.27 1.76L3.89 10.74L4.91 10.50L7.24 2.65ZM16.86 3.81C14.78 3.81 13.57 5.12 13.57 7.22C13.57 9.32 14.64 10.65 16.86 10.65C19.08 10.65 20.15 9.38 20.15 7.22C20.15 5.07 18.93 3.81 16.86 3.81ZM16.86 4.33C18.03 4.33 18.80 5.39 18.80 7.18C18.80 8.96 18.05 10.14 16.86 10.14C15.67 10.14 14.92 8.95 14.92 7.18C14.92 5.42 15.69 4.33 16.86 4.33ZM26.47 5.47L26.47 4.05C26.07 3.88 25.65 3.81 25.23 3.81C24.50 3.81 23.97 4.06 23.49 4.33L23.00 3.81L21.38 3.96L21.48 4.47L22.18 4.47L22.18 9.70L21.27 10.00L21.36 10.50L24.30 10.50L24.42 10.00L23.49 9.70L23.49 4.84C23.98 4.66 24.58 4.47 24.98 4.47C25.31 4.47 25.47 4.51 25.66 4.58L25.97 5.57ZM31.88 9.39C31.49 9.79 31.04 10.00 30.46 10.00C29.29 10.00 28.57 8.82 28.57 7.14C28.57 5.46 29.18 4.47 30.53 4.47C31.02 4.47 31.50 4.65 31.88 4.86ZM31.91 10.00L32.13 10.50L34.01 10.50L34.10 10.00L33.19 9.70L33.19 0.20L32.56 0.04L30.94 0.20L31.04 0.70L31.88 0.70L31.88 4.14C31.42 3.93 30.93 3.81 30.45 3.81C28.39 3.81 27.10 5.21 27.10 7.28C27.10 9.37 28.17 10.65 30.38 10.65C31.07 10.65 31.64 10.25 31.91 10.00ZM38.37 2.98C38.37 4.89 39.58 5.57 40.66 6.03C41.75 6.50 43.46 7.18 43.46 8.53C43.46 9.51 42.53 10.05 41.16 10.05C40.70 10.05 40.10 9.86 39.70 9.65L39.00 7.81L38.42 7.91L38.42 9.91C39.12 10.42 40.11 10.74 41.26 10.74C43.72 10.74 44.74 9.62 44.74 8.08C44.74 6.45 43.50 5.66 42.03 4.91C41.23 4.51 39.68 3.89 39.68 2.88C39.68 1.96 40.29 1.15 41.55 1.15C42.10 1.15 42.56 1.23 43.04 1.40L43.71 3.29L44.30 3.19L44.30 1.29C43.51 0.81 42.66 0.46 41.57 0.46C39.82 0.46 38.37 1.27 38.37 2.98ZM47.43 6.54C47.54 5.24 48.10 4.33 49.31 4.33C50.27 4.33 50.81 4.87 50.81 5.89C50.81 6.09 50.76 6.36 50.71 6.54ZM49.64 10.00C48.13 10.00 47.40 8.79 47.40 7.11L47.40 7.04L51.88 7.04C52.00 6.80 52.12 6.38 52.12 6.01C52.12 4.66 50.93 3.81 49.31 3.81C47.35 3.81 45.92 5.07 45.92 7.22C45.92 9.30 47.08 10.65 49.56 10.65C50.47 10.65 51.37 10.37 51.97 9.83L51.65 9.37C51.07 9.73 50.39 10.00 49.64 10.00ZM53.61 5.47L54.11 5.57L54.40 4.49C54.80 4.35 55.23 4.33 55.59 4.33C56.42 4.33 56.99 4.80 56.99 5.80L56.99 6.54C55.17 6.54 53.05 6.85 53.05 8.81C53.05 10.02 53.96 10.65 55.13 10.65C56.10 10.65 56.48 10.43 57.02 10.00L57.26 10.50L59.12 10.50L59.22 10.00L58.31 9.70L58.31 6.38C58.31 4.73 57.41 3.81 55.68 3.81C54.96 3.81 54.31 3.96 53.61 4.31ZM56.99 9.23C56.70 9.73 56.25 10.00 55.69 10.00C55.13 10.00 54.53 9.67 54.53 8.67C54.53 7.64 55.23 7.04 56.99 7.04ZM65.13 5.47L65.13 4.05C64.72 3.88 64.30 3.81 63.88 3.81C63.15 3.81 62.62 4.06 62.15 4.33L61.66 3.81L60.03 3.96L60.13 4.47L60.83 4.47L60.83 9.70L59.92 10.00L60.02 10.50L62.96 10.50L63.07 10.00L62.15 9.70L62.15 4.84C62.64 4.66 63.24 4.47 63.63 4.47C63.97 4.47 64.12 4.51 64.32 4.58L64.62 5.57ZM69.47 4.33C69.83 4.33 70.32 4.41 70.70 4.56L70.97 5.57L71.47 5.47L71.47 4.31C70.77 3.96 70.11 3.81 69.43 3.81C67.24 3.81 65.83 5.07 65.83 7.24C65.83 9.31 66.92 10.65 69.40 10.65C70.31 10.65 71.05 10.37 71.65 9.83L71.33 9.37C70.76 9.73 70.21 10.00 69.48 10.00C67.73 10.00 67.30 8.64 67.30 6.96C67.30 5.31 68.07 4.33 69.47 4.33ZM74.45 9.70L74.45 4.84C74.90 4.65 75.47 4.47 76.01 4.47C76.73 4.47 77.27 5.00 77.27 5.89L77.27 9.70L76.34 10.00L76.45 10.50L79.39 10.50L79.49 10.00L78.58 9.70L78.58 6.10C78.58 4.62 77.63 3.81 76.12 3.81C75.53 3.81 74.90 4.07 74.45 4.33L74.45 0.20L73.82 0.04L72.17 0.20L72.28 0.70L73.14 0.70L73.14 9.70L72.23 10.00L72.32 10.50L75.26 10.50L75.36 10.00Z"></path></g><!----><g data-v-423bf9ae="" id="2330e796-22c0-4391-b0f5-a127fa37ff71" transform="matrix(1.9266585111618042,0,0,1.9266585111618042,0.1457187384366989,-7.212881882878719e-7)" stroke="none" fill="#BD1FBD"><path d="M35.03 35.148c-7.732-3.146-11.661-3.487-15.821-3.848-4.101-.354-8.347-.729-16.382-3.95-.597.901-1.09 2.651-1.487 4.772 8.261 2.153 12.443 1.988 16.477 1.821 4.081-.168 8.298-.341 16.548 1.847 2.792.741 4.966 1.47 6.695 2.176-1.536-.849-3.491-1.785-6.03-2.818zM34.048 37.982c-8.068-2.141-12.008-1.98-16.182-1.808-4.11.17-8.367.338-16.739-1.835a85.795 85.795 0 0 0-.661 5.174c8.167.969 12.216.268 16.122-.416 4.021-.703 8.179-1.43 16.647-.348 3.312.424 5.807.94 7.732 1.5-1.709-.719-3.944-1.478-6.919-2.267zM16.801 41.31c-3.991.697-8.125 1.412-16.451.43-.17 1.895-.287 3.646-.35 4.945 8.365-.059 12.312-1.281 16.133-2.465 3.901-1.208 7.934-2.457 16.469-2.457 2.886 0 5.174.146 7.025.387-1.702-.43-3.83-.831-6.547-1.178-8.28-1.06-12.166-.381-16.279.338zM79.611 33.969c4.043.165 8.232.333 16.533-1.835-.41-2.307-.904-4.096-1.479-4.783-8.078 3.246-12.334 3.619-16.447 3.975-4.16.361-8.09.7-15.822 3.849-2.539 1.034-4.496 1.97-6.031 2.821 1.729-.707 3.904-1.438 6.699-2.178 8.248-2.19 12.467-2.016 16.547-1.849z"></path><path d="M94.041 25.278L85.287 0c-6.336 2.515-9.715 2.807-12.984 3.09-3.342.289-6.498.562-12.707 3.089-8.611 3.506-9.078 5.696-9.328 6.873-.121.565-.264 1.197-1.038 1.609v28.725c.004-.006.012-.012.017-.02.036-.052.068-.115.1-.184.065-.158.114-.348.174-.625.39-1.831 1.042-4.896 12.414-9.523 7.904-3.22 12.111-3.583 16.18-3.936 3.992-.345 8.119-.701 15.926-3.82z"></path><path d="M80.837 39.123c3.91.684 7.961 1.383 16.141.414a92.14 92.14 0 0 0-.633-5.184c-8.398 2.184-12.664 2.017-16.785 1.846-4.174-.171-8.113-.332-16.182 1.809-2.975.79-5.209 1.549-6.922 2.27 1.926-.56 4.422-1.076 7.734-1.5 8.466-1.085 12.628-.358 16.647.345zM81.294 44.247c3.82 1.183 7.768 2.406 16.133 2.466-.072-1.51-.188-3.213-.336-4.948-8.334.985-12.473.269-16.465-.429-4.113-.719-7.998-1.397-16.279-.338-2.715.348-4.844.75-6.545 1.178 1.85-.238 4.137-.387 7.023-.387 8.536 0 12.569 1.25 16.469 2.458zM47.907 42.533c.033.154.061.279.091.394V14.662c-.774-.412-.917-1.044-1.037-1.609-.251-1.177-.717-3.367-9.329-6.873-6.209-2.527-9.365-2.8-12.706-3.089-3.27-.283-6.647-.576-12.981-3.089L3.382 25.25c7.81 3.121 11.938 3.479 15.933 3.824 4.068.353 8.274.717 16.179 3.934 11.372 4.628 12.024 7.694 12.413 9.525z"></path></g><!----><g data-v-423bf9ae="" id="84962eb4-6cff-4e45-affe-f601401da01f" fill="#ffffff" transform="matrix(1.0019726753234863,0,0,1.0019726753234863,207.3278045654297,57.25459671020508)"><path d="M0.39 12.41L0.38 11.87L0.55 11.87L0.55 11.87Q0.94 11.87 1.07 11.73L1.07 11.73L1.07 11.73Q1.19 11.57 1.52 10.83L1.52 10.83L2.43 8.82L3.01 7.53L3.01 7.53Q3.27 6.97 3.32 6.86L3.32 6.86L3.32 6.86Q3.38 6.70 3.44 6.60L3.44 6.60L3.44 6.60Q3.49 6.51 3.50 6.45L3.50 6.45L3.60 6.21L5.02 2.74L5.32 2.74L5.32 2.74Q6.17 4.98 8.36 10.25L8.36 10.25L8.36 10.25Q8.81 11.34 9.00 11.64L9.00 11.64L9.00 11.64Q9.14 11.87 9.58 11.87L9.58 11.87L9.79 11.87L9.78 12.41L6.58 12.41L6.60 11.87L7.01 11.87L7.01 11.87Q7.63 11.87 7.63 11.70L7.63 11.70L7.63 11.70Q7.63 11.63 7.49 11.27L7.49 11.27L6.45 8.72L3.21 8.72L2.10 11.18L2.10 11.18Q1.96 11.50 1.96 11.63L1.96 11.63L1.96 11.63Q1.96 11.79 2.06 11.83L2.06 11.83L2.06 11.83Q2.15 11.87 2.54 11.87L2.54 11.87L3.11 11.87L3.11 12.41L0.39 12.41ZM4.89 4.79L3.47 8.10L6.21 8.10L4.89 4.79ZM27.10 3.64L27.09 3.08L34.28 3.08L34.28 3.08Q34.29 4.14 34.34 5.28L34.34 5.28L33.80 5.30L33.80 5.30Q33.78 4.66 33.73 4.25L33.73 4.25L33.73 4.25Q33.69 3.89 33.63 3.80L33.63 3.80L33.63 3.80Q33.58 3.71 33.46 3.69L33.46 3.69L33.46 3.69Q33.37 3.68 32.78 3.68L32.78 3.68L30.40 3.68L30.40 3.68Q29.85 3.68 29.71 3.77L29.71 3.77L29.71 3.77Q29.59 3.86 29.59 4.33L29.59 4.33L29.59 6.28L29.59 6.28Q29.59 6.69 29.64 6.76L29.64 6.76L29.64 6.76Q29.71 6.84 30.04 6.84L30.04 6.84L32.16 6.84L32.16 6.84Q32.53 6.84 32.61 6.74L32.61 6.74L32.61 6.74Q32.69 6.64 32.69 6.17L32.69 6.17L32.69 5.63L33.21 5.63L33.21 8.97L32.69 8.97L32.69 8.26L32.69 8.26Q32.69 7.68 32.61 7.57L32.61 7.57L32.61 7.57Q32.53 7.46 32.19 7.46L32.19 7.46L30.09 7.46L30.09 7.46Q29.76 7.46 29.67 7.54L29.67 7.54L29.67 7.54Q29.59 7.63 29.59 7.89L29.59 7.89L29.59 11.20L29.59 11.20Q29.59 11.60 29.65 11.73L29.65 11.73L29.65 11.73Q29.74 11.87 30.00 11.87L30.00 11.87L30.94 11.87L30.94 12.41L27.34 12.41L27.34 11.87L27.75 11.87L27.75 11.87Q28.26 11.87 28.36 11.79L28.36 11.79L28.36 11.79Q28.45 11.70 28.45 11.33L28.45 11.33L28.45 4.24L28.45 4.24Q28.45 3.79 28.28 3.71L28.28 3.71L28.28 3.71Q28.14 3.64 27.10 3.64L27.10 3.64ZM42.72 3.64L42.33 3.64L42.35 3.08L45.57 3.08L45.57 3.08Q46.70 3.08 47.30 3.21L47.30 3.21L47.30 3.21Q47.95 3.37 48.41 3.75L48.41 3.75L48.41 3.75Q49.42 4.57 49.42 5.71L49.42 5.71L49.42 5.71Q49.42 6.43 48.95 7.04L48.95 7.04L48.95 7.04Q48.45 7.66 47.42 7.92L47.42 7.92L50.11 11.49L50.11 11.49Q50.42 11.87 50.71 11.87L50.71 11.87L51.31 11.87L51.34 12.41L49.31 12.41L46.31 8.10L46.14 8.10L46.14 8.10Q46.10 8.10 46.05 8.11L46.05 8.11L46.05 8.11Q45.99 8.11 45.98 8.11L45.98 8.11L45.98 8.11Q45.10 8.11 44.70 8.03L44.70 8.03L44.70 11.46L44.70 11.46Q44.70 11.76 44.84 11.81L44.84 11.81L44.84 11.81Q44.97 11.87 45.67 11.87L45.67 11.87L46.38 11.87L46.35 12.41L42.63 12.41L42.63 11.87L42.95 11.87L42.95 11.87Q43.42 11.87 43.48 11.81L43.48 11.81L43.48 11.81Q43.57 11.74 43.57 11.46L43.57 11.46L43.57 4.14L43.57 4.14Q43.57 3.82 43.37 3.73L43.37 3.73L43.37 3.73Q43.15 3.64 42.72 3.64L42.72 3.64ZM44.70 4.28L44.70 7.57L44.70 7.57Q44.88 7.70 45.60 7.71L45.60 7.71L45.60 7.71Q46.87 7.71 47.45 7.27L47.45 7.27L47.45 7.27Q48.04 6.84 48.04 5.92L48.04 5.92L48.04 5.92Q48.04 4.92 47.26 4.27L47.26 4.27L47.26 4.27Q46.50 3.64 45.12 3.64L45.12 3.64L45.12 3.64Q44.87 3.64 44.79 3.75L44.79 3.75L44.79 3.75Q44.71 3.84 44.70 4.28L44.70 4.28ZM59.10 3.64L59.09 3.08L66.30 3.08L66.30 3.08Q66.32 4.14 66.37 5.28L66.37 5.28L65.82 5.30L65.82 5.30Q65.81 4.66 65.75 4.25L65.75 4.25L65.75 4.25Q65.71 3.89 65.66 3.80L65.66 3.80L65.66 3.80Q65.60 3.71 65.49 3.69L65.49 3.69L65.49 3.69Q65.39 3.68 64.80 3.68L64.80 3.68L62.43 3.68L62.43 3.68Q61.88 3.68 61.74 3.77L61.74 3.77L61.74 3.77Q61.61 3.86 61.61 4.33L61.61 4.33L61.61 6.28L61.61 6.28Q61.61 6.69 61.67 6.76L61.67 6.76L61.67 6.76Q61.74 6.84 62.08 6.84L62.08 6.84L64.19 6.84L64.19 6.84Q64.55 6.84 64.63 6.73L64.63 6.73L64.63 6.73Q64.72 6.63 64.72 6.14L64.72 6.14L64.72 5.61L65.24 5.63L65.24 8.97L64.72 8.97L64.72 8.24L64.72 8.24Q64.72 7.66 64.65 7.57L64.65 7.57L64.65 7.57Q64.57 7.46 64.22 7.46L64.22 7.46L62.12 7.46L62.12 7.46Q61.78 7.46 61.70 7.54L61.70 7.54L61.70 7.54Q61.61 7.63 61.61 7.89L61.61 7.89L61.61 11.20L61.61 11.20Q61.61 11.57 61.70 11.67L61.70 11.67L61.70 11.67Q61.78 11.77 62.06 11.77L62.06 11.77L62.06 11.77Q64.98 11.75 65.50 11.69L65.50 11.69L65.50 11.69Q66.02 11.63 66.10 11.38L66.10 11.38L66.11 11.36L66.12 11.35L66.34 10.17L66.82 10.25L66.47 12.41L59.37 12.41L59.37 11.87L59.74 11.87L59.74 11.87Q60.30 11.87 60.38 11.80L60.38 11.80L60.38 11.80Q60.48 11.72 60.48 11.33L60.48 11.33L60.48 4.24L60.48 4.24Q60.48 3.82 60.33 3.73L60.33 3.73L60.33 3.73Q60.16 3.64 59.50 3.64L59.50 3.64L59.10 3.64ZM74.71 3.64L74.70 3.08L81.91 3.08L81.91 3.08Q81.92 4.14 81.98 5.28L81.98 5.28L81.43 5.30L81.43 5.30Q81.42 4.66 81.36 4.25L81.36 4.25L81.36 4.25Q81.32 3.89 81.27 3.80L81.27 3.80L81.27 3.80Q81.21 3.71 81.09 3.69L81.09 3.69L81.09 3.69Q81.00 3.68 80.41 3.68L80.41 3.68L78.03 3.68L78.03 3.68Q77.49 3.68 77.34 3.77L77.34 3.77L77.34 3.77Q77.22 3.86 77.22 4.33L77.22 4.33L77.22 6.28L77.22 6.28Q77.22 6.69 77.27 6.76L77.27 6.76L77.27 6.76Q77.34 6.84 77.68 6.84L77.68 6.84L79.80 6.84L79.80 6.84Q80.16 6.84 80.24 6.73L80.24 6.73L80.24 6.73Q80.32 6.63 80.33 6.14L80.33 6.14L80.33 5.61L80.84 5.63L80.84 8.97L80.33 8.97L80.33 8.24L80.33 8.24Q80.33 7.66 80.25 7.57L80.25 7.57L80.25 7.57Q80.17 7.46 79.82 7.46L79.82 7.46L77.72 7.46L77.72 7.46Q77.39 7.46 77.30 7.54L77.30 7.54L77.30 7.54Q77.22 7.63 77.22 7.89L77.22 7.89L77.22 11.20L77.22 11.20Q77.22 11.57 77.30 11.67L77.30 11.67L77.30 11.67Q77.39 11.77 77.66 11.77L77.66 11.77L77.66 11.77Q80.58 11.75 81.11 11.69L81.11 11.69L81.11 11.69Q81.63 11.63 81.71 11.38L81.71 11.38L81.72 11.36L81.72 11.35L81.95 10.17L82.43 10.25L82.08 12.41L74.98 12.41L74.98 11.87L75.35 11.87L75.35 11.87Q75.91 11.87 75.99 11.80L75.99 11.80L75.99 11.80Q76.08 11.72 76.08 11.33L76.08 11.33L76.08 4.24L76.08 4.24Q76.08 3.82 75.93 3.73L75.93 3.73L75.93 3.73Q75.76 3.64 75.11 3.64L75.11 3.64L74.71 3.64ZM100.26 7.83L100.26 7.83L100.26 7.83Q100.26 6.62 100.66 5.68L100.66 5.68L100.66 5.68Q101.08 4.72 101.77 4.12L101.77 4.12L101.77 4.12Q102.46 3.51 103.32 3.19L103.32 3.19L103.32 3.19Q104.16 2.88 105.11 2.88L105.11 2.88L105.11 2.88Q106.37 2.88 107.42 3.40L107.42 3.40L107.42 3.40Q108.50 3.93 109.21 5.07L109.21 5.07L109.21 5.07Q109.91 6.17 109.92 7.75L109.92 7.75L109.92 7.75Q109.92 8.70 109.61 9.54L109.61 9.54L109.61 9.54Q109.30 10.38 108.69 11.10L108.69 11.10L108.69 11.10Q108.09 11.81 107.15 12.22L107.15 12.22L107.15 12.22Q106.19 12.63 105 12.64L105 12.64L105 12.64Q103.87 12.64 102.93 12.23L102.93 12.23L102.93 12.23Q101.99 11.83 101.43 11.14L101.43 11.14L101.43 11.14Q100.86 10.45 100.56 9.60L100.56 9.60L100.56 9.60Q100.26 8.72 100.26 7.83ZM101.51 7.38L101.51 7.38L101.51 7.38Q101.51 8.52 101.94 9.60L101.94 9.60L101.94 9.60Q102.35 10.64 103.28 11.33L103.28 11.33L103.28 11.33Q104.19 12.03 105.38 12.04L105.38 12.04L105.38 12.04Q106.75 12.04 107.69 11.01L107.69 11.01L107.69 11.01Q108.64 9.97 108.64 8.10L108.64 8.10L108.64 8.10Q108.64 5.99 107.47 4.72L107.47 4.72L107.47 4.72Q106.33 3.46 104.82 3.45L104.82 3.45L104.82 3.45Q104.30 3.45 103.75 3.65L103.75 3.65L103.75 3.65Q103.21 3.85 102.70 4.25L102.70 4.25L102.70 4.25Q102.16 4.68 101.83 5.48L101.83 5.48L101.83 5.48Q101.51 6.27 101.51 7.38ZM118.04 3.64L118.03 3.08L120.20 3.08L125.94 10.48L125.94 4.14L125.94 4.14Q125.94 3.81 125.78 3.72L125.78 3.72L125.78 3.72Q125.63 3.64 125.17 3.64L125.17 3.64L124.68 3.64L124.71 3.08L127.69 3.08L127.69 3.64L127.37 3.64L127.37 3.64Q126.90 3.64 126.75 3.75L126.75 3.75L126.75 3.75Q126.60 3.86 126.60 4.25L126.60 4.25L126.60 12.32L126.60 12.47L126.60 12.47Q126.60 12.52 126.59 12.57L126.59 12.57L126.59 12.57Q126.57 12.61 126.54 12.64L126.54 12.64L126.54 12.64Q126.53 12.65 126.47 12.65L126.47 12.65L126.28 12.65L126.22 12.65L126.19 12.65L126.16 12.64L126.16 12.64Q126.14 12.64 126.12 12.63L126.12 12.63L126.12 12.63Q126.11 12.61 126.11 12.60L126.11 12.60L126.11 12.60Q126.11 12.58 126.10 12.57L126.10 12.57L126.10 12.57Q126.07 12.54 126.04 12.50L126.04 12.50L126.04 12.50Q126.03 12.48 126.01 12.45L126.01 12.45L126.01 12.45Q125.99 12.41 125.97 12.40L125.97 12.40L119.87 4.56L119.94 11.22L119.94 11.22Q119.94 11.67 120.10 11.77L120.10 11.77L120.10 11.77Q120.26 11.87 120.97 11.87L120.97 11.87L121.21 11.87L121.21 12.41L118.27 12.41L118.27 11.87L118.69 11.87L118.69 11.87Q119.07 11.87 119.18 11.76L119.18 11.76L119.18 11.76Q119.27 11.66 119.28 11.25L119.28 11.25L119.28 3.80L119.14 3.64L118.04 3.64ZM135.92 3.64L135.43 3.64L135.44 3.08L139.03 3.08L139.03 3.64L138.39 3.64L138.39 3.64Q138.02 3.64 137.90 3.72L137.90 3.72L137.90 3.72Q137.79 3.80 137.79 4.16L137.79 4.16L137.79 11.22L137.79 11.22Q137.79 11.57 137.88 11.67L137.88 11.67L137.88 11.67Q137.96 11.77 138.26 11.77L138.26 11.77L138.26 11.77Q141.13 11.74 141.78 11.63L141.78 11.63L141.78 11.63Q142.00 11.61 142.08 11.39L142.08 11.39L142.08 11.39Q142.16 11.17 142.36 10.05L142.36 10.05L142.85 10.08L142.39 12.41L135.63 12.41L135.61 11.87L136.00 11.87L136.00 11.87Q136.51 11.87 136.58 11.80L136.58 11.80L136.58 11.80Q136.66 11.72 136.66 11.33L136.66 11.33L136.66 4.09L136.66 4.09Q136.66 3.80 136.51 3.72L136.51 3.72L136.51 3.72Q136.36 3.64 135.92 3.64L135.92 3.64ZM151.17 3.64L150.58 3.64L150.60 3.08L154.11 3.08L154.11 3.64L153.88 3.64L153.88 3.64Q153.33 3.64 153.16 3.73L153.16 3.73L153.16 3.73Q153.02 3.81 153.02 4.28L153.02 4.28L153.02 11.22L153.02 11.22Q153.02 11.68 153.13 11.77L153.13 11.77L153.13 11.77Q153.24 11.87 153.77 11.87L153.77 11.87L154.32 11.87L154.33 12.41L150.75 12.41L150.74 11.87L151.10 11.87L151.10 11.87Q151.66 11.87 151.77 11.77L151.77 11.77L151.77 11.77Q151.89 11.67 151.89 11.25L151.89 11.25L151.89 4.14L151.89 4.14Q151.89 3.77 151.79 3.71L151.79 3.71L151.79 3.71Q151.68 3.64 151.17 3.64L151.17 3.64ZM162.09 3.64L162.07 3.08L164.25 3.08L169.98 10.48L169.98 4.14L169.98 4.14Q169.98 3.81 169.83 3.72L169.83 3.72L169.83 3.72Q169.67 3.64 169.22 3.64L169.22 3.64L168.72 3.64L168.75 3.08L171.73 3.08L171.73 3.64L171.41 3.64L171.41 3.64Q170.95 3.64 170.80 3.75L170.80 3.75L170.80 3.75Q170.65 3.86 170.65 4.25L170.65 4.25L170.65 12.32L170.65 12.47L170.65 12.47Q170.65 12.52 170.63 12.57L170.63 12.57L170.63 12.57Q170.62 12.61 170.58 12.64L170.58 12.64L170.58 12.64Q170.57 12.65 170.52 12.65L170.52 12.65L170.32 12.65L170.26 12.65L170.24 12.65L170.21 12.64L170.21 12.64Q170.18 12.64 170.17 12.63L170.17 12.63L170.17 12.63Q170.15 12.61 170.15 12.60L170.15 12.60L170.15 12.60Q170.15 12.58 170.14 12.57L170.14 12.57L170.14 12.57Q170.11 12.54 170.08 12.50L170.08 12.50L170.08 12.50Q170.07 12.48 170.05 12.45L170.05 12.45L170.05 12.45Q170.03 12.41 170.02 12.40L170.02 12.40L163.91 4.56L163.98 11.22L163.98 11.22Q163.98 11.67 164.14 11.77L164.14 11.77L164.14 11.77Q164.30 11.87 165.01 11.87L165.01 11.87L165.25 11.87L165.25 12.41L162.31 12.41L162.31 11.87L162.74 11.87L162.74 11.87Q163.11 11.87 163.22 11.76L163.22 11.76L163.22 11.76Q163.32 11.66 163.32 11.25L163.32 11.25L163.32 3.80L163.18 3.64L162.09 3.64ZM179.48 3.64L179.47 3.08L186.68 3.08L186.68 3.08Q186.70 4.14 186.75 5.28L186.75 5.28L186.20 5.30L186.20 5.30Q186.19 4.66 186.14 4.25L186.14 4.25L186.14 4.25Q186.09 3.89 186.04 3.80L186.04 3.80L186.04 3.80Q185.99 3.71 185.87 3.69L185.87 3.69L185.87 3.69Q185.77 3.68 185.19 3.68L185.19 3.68L182.81 3.68L182.81 3.68Q182.26 3.68 182.12 3.77L182.12 3.77L182.12 3.77Q181.99 3.86 181.99 4.33L181.99 4.33L181.99 6.28L181.99 6.28Q181.99 6.69 182.05 6.76L182.05 6.76L182.05 6.76Q182.12 6.84 182.46 6.84L182.46 6.84L184.57 6.84L184.57 6.84Q184.93 6.84 185.01 6.73L185.01 6.73L185.01 6.73Q185.10 6.63 185.10 6.14L185.10 6.14L185.10 5.61L185.62 5.63L185.62 8.97L185.10 8.97L185.10 8.24L185.10 8.24Q185.10 7.66 185.03 7.57L185.03 7.57L185.03 7.57Q184.95 7.46 184.60 7.46L184.60 7.46L182.50 7.46L182.50 7.46Q182.16 7.46 182.08 7.54L182.08 7.54L182.08 7.54Q181.99 7.63 181.99 7.89L181.99 7.89L181.99 11.20L181.99 11.20Q181.99 11.57 182.08 11.67L182.08 11.67L182.08 11.67Q182.16 11.77 182.44 11.77L182.44 11.77L182.44 11.77Q185.36 11.75 185.88 11.69L185.88 11.69L185.88 11.69Q186.40 11.63 186.48 11.38L186.48 11.38L186.49 11.36L186.50 11.35L186.72 10.17L187.20 10.25L186.85 12.41L179.75 12.41L179.75 11.87L180.12 11.87L180.12 11.87Q180.68 11.87 180.76 11.80L180.76 11.80L180.76 11.80Q180.86 11.72 180.86 11.33L180.86 11.33L180.86 4.24L180.86 4.24Q180.86 3.82 180.71 3.73L180.71 3.73L180.71 3.73Q180.54 3.64 179.88 3.64L179.88 3.64L179.48 3.64ZM204.69 3.64L204.65 3.08L208.43 3.08L208.43 3.08Q209.75 3.08 210.62 3.19L210.62 3.19L210.62 3.19Q211.44 3.29 212.13 3.69L212.13 3.69L212.13 3.69Q213.08 4.27 213.58 5.24L213.58 5.24L213.58 5.24Q214.07 6.21 214.07 7.39L214.07 7.39L214.07 7.39Q214.07 8.05 213.93 8.65L213.93 8.65L213.93 8.65Q213.77 9.29 213.38 9.98L213.38 9.98L213.38 9.98Q212.95 10.73 212.39 11.21L212.39 11.21L212.39 11.21Q211.76 11.76 210.79 12.08L210.79 12.08L210.79 12.08Q209.79 12.41 208.52 12.41L208.52 12.41L204.90 12.41L204.89 11.87L205.26 11.87L205.26 11.87Q205.78 11.87 205.88 11.79L205.88 11.79L205.88 11.79Q205.99 11.70 205.99 11.25L205.99 11.25L205.99 4.14L205.99 4.14Q205.99 3.77 205.90 3.71L205.90 3.71L205.90 3.71Q205.79 3.64 205.28 3.64L205.28 3.64L204.69 3.64ZM207.13 4.39L207.13 11.22L207.13 11.22Q207.13 11.67 207.29 11.77L207.29 11.77L207.29 11.77Q207.45 11.87 208.32 11.87L208.32 11.87L208.32 11.87Q209.37 11.87 210.16 11.61L210.16 11.61L210.16 11.61Q211.02 11.35 211.46 10.99L211.46 10.99L211.46 10.99Q211.95 10.58 212.25 10.05L212.25 10.05L212.25 10.05Q212.56 9.52 212.69 8.96L212.69 8.96L212.69 8.96Q212.81 8.41 212.81 7.82L212.81 7.82L212.81 7.82Q212.81 7.03 212.54 6.34L212.54 6.34L212.54 6.34Q212.28 5.65 211.75 5.05L211.75 5.05L211.75 5.05Q211.22 4.46 210.31 4.09L210.31 4.09L210.31 4.09Q209.38 3.73 208.22 3.73L208.22 3.73L207.70 3.73L207.70 3.73Q207.34 3.73 207.24 3.85L207.24 3.85L207.24 3.85Q207.13 3.99 207.13 4.39L207.13 4.39ZM222.63 3.64L222.04 3.64L222.06 3.08L225.57 3.08L225.57 3.64L225.34 3.64L225.34 3.64Q224.79 3.64 224.62 3.73L224.62 3.73L224.62 3.73Q224.49 3.81 224.49 4.28L224.49 4.28L224.49 11.22L224.49 11.22Q224.49 11.68 224.59 11.77L224.59 11.77L224.59 11.77Q224.70 11.87 225.24 11.87L225.24 11.87L225.78 11.87L225.80 12.41L222.22 12.41L222.20 11.87L222.56 11.87L222.56 11.87Q223.13 11.87 223.24 11.77L223.24 11.77L223.24 11.77Q223.35 11.67 223.35 11.25L223.35 11.25L223.35 4.14L223.35 4.14Q223.35 3.77 223.25 3.71L223.25 3.71L223.25 3.71Q223.14 3.64 222.63 3.64L222.63 3.64ZM233.92 8.02L233.92 8.02L233.92 8.02Q233.92 6.86 234.39 5.83L234.39 5.83L234.39 5.83Q234.86 4.85 235.61 4.27L235.61 4.27L235.61 4.27Q236.35 3.69 237.25 3.37L237.25 3.37L237.25 3.37Q238.14 3.05 238.98 3.05L238.98 3.05L238.98 3.05Q239.85 3.05 240.52 3.16L240.52 3.16L240.52 3.16Q241.15 3.26 241.45 3.37L241.45 3.37L241.45 3.37Q241.75 3.48 241.79 3.48L241.79 3.48L241.79 3.48Q241.96 3.48 241.98 3.41L241.98 3.41L241.98 3.41Q242.01 3.33 242.01 3.09L242.01 3.09L242.01 2.97L242.54 2.97L242.54 2.97Q242.58 4.30 242.71 5.64L242.71 5.64L242.20 5.65L242.20 5.65Q242.18 5.40 242.16 5.26L242.16 5.26L242.16 5.26Q242.16 5.20 242.16 5.13L242.16 5.13L242.16 5.13Q242.15 5.07 242.14 5.02L242.14 5.02L242.14 5.02Q242.14 4.98 242.14 4.95L242.14 4.95L242.14 4.95Q242.11 4.84 242.11 4.74L242.11 4.74L242.11 4.74Q242.11 4.68 242.07 4.59L242.07 4.59L242.07 4.59Q242.07 4.57 242.04 4.55L242.04 4.55L242.04 4.55Q242.01 4.52 242.01 4.50L242.01 4.50L242.01 4.50Q241.98 4.44 241.91 4.41L241.91 4.41L241.91 4.41Q241.87 4.38 241.84 4.37L241.84 4.37L241.84 4.37Q241.81 4.36 241.79 4.35L241.79 4.35L241.79 4.35Q241.77 4.35 241.75 4.33L241.75 4.33L241.75 4.33Q241.73 4.31 241.68 4.29L241.68 4.29L241.68 4.29Q241.64 4.27 241.60 4.25L241.60 4.25L241.60 4.25Q241.38 4.16 241.35 4.14L241.35 4.14L241.35 4.14Q241.00 3.96 240.36 3.83L240.36 3.83L240.36 3.83Q239.69 3.71 239.03 3.71L239.03 3.71L239.03 3.71Q237.30 3.71 236.21 4.84L236.21 4.84L236.21 4.84Q235.10 5.99 235.11 7.62L235.11 7.62L235.11 7.62Q235.11 9.35 236.33 10.69L236.33 10.69L236.33 10.69Q237.53 12.02 239.35 12.02L239.35 12.02L239.35 12.02Q240.35 12.02 241.29 11.49L241.29 11.49L241.29 11.49Q242.25 10.94 242.27 10.58L242.27 10.58L242.31 9.41L242.81 9.41L242.72 11.45L242.72 11.45Q242.66 11.49 242.53 11.57L242.53 11.57L242.53 11.57Q242.47 11.60 242.01 11.85L242.01 11.85L242.01 11.85Q241.63 12.05 241.19 12.23L241.19 12.23L241.19 12.23Q240.82 12.39 240.17 12.51L240.17 12.51L240.17 12.51Q239.57 12.63 239.00 12.64L239.00 12.64L239.00 12.64Q236.62 12.64 235.26 11.39L235.26 11.39L235.26 11.39Q233.92 10.14 233.92 8.02ZM251.12 5.35L250.62 5.33L250.62 5.33Q250.74 4.17 250.82 3.08L250.82 3.08L258.90 3.08L258.90 3.08Q258.82 4.13 258.79 4.53L258.79 4.53L258.79 4.53Q258.75 5.26 258.73 5.32L258.73 5.32L258.23 5.30L258.23 5.30Q258.32 4.34 258.32 4.16L258.32 4.16L258.32 4.16Q258.32 3.88 258.17 3.79L258.17 3.79L258.17 3.79Q258.00 3.69 257.60 3.69L257.60 3.69L255.99 3.69L255.99 3.69Q255.49 3.69 255.36 3.79L255.36 3.79L255.36 3.79Q255.27 3.87 255.26 4.36L255.26 4.36L255.26 11.22L255.26 11.22Q255.26 11.66 255.40 11.76L255.40 11.76L255.40 11.76Q255.56 11.87 256.07 11.87L256.07 11.87L256.63 11.87L256.65 12.41L252.96 12.40L252.96 11.87L253.18 11.87L253.18 11.87Q253.85 11.87 253.99 11.79L253.99 11.79L253.99 11.79Q254.13 11.70 254.13 11.28L254.13 11.28L254.13 4.48L254.13 4.48Q254.13 3.92 254.03 3.80L254.03 3.80L254.03 3.80Q253.93 3.69 253.51 3.69L253.51 3.69L252.04 3.69L252.04 3.69Q251.86 3.69 251.79 3.71L251.79 3.71L251.79 3.71Q251.72 3.72 251.61 3.72L251.61 3.72L251.61 3.72Q251.58 3.72 251.47 3.79L251.47 3.79L251.47 3.79Q251.38 3.84 251.36 3.86L251.36 3.86L251.36 3.86Q251.33 3.88 251.29 3.99L251.29 3.99L251.29 3.99Q251.26 4.05 251.23 4.14L251.23 4.14L251.23 4.14Q251.21 4.21 251.19 4.36L251.19 4.36L251.19 4.36Q251.16 4.59 251.16 4.61L251.16 4.61L251.16 4.61Q251.16 4.80 251.15 4.95L251.15 4.95L251.15 4.95Q251.15 5.02 251.14 5.15L251.14 5.15L251.14 5.15Q251.13 5.29 251.12 5.35L251.12 5.35ZM267.23 3.64L266.64 3.64L266.66 3.08L270.17 3.08L270.17 3.64L269.94 3.64L269.94 3.64Q269.39 3.64 269.22 3.73L269.22 3.73L269.22 3.73Q269.08 3.81 269.08 4.28L269.08 4.28L269.08 11.22L269.08 11.22Q269.08 11.68 269.19 11.77L269.19 11.77L269.19 11.77Q269.30 11.87 269.83 11.87L269.83 11.87L270.38 11.87L270.40 12.41L266.81 12.41L266.80 11.87L267.16 11.87L267.16 11.87Q267.72 11.87 267.84 11.77L267.84 11.77L267.84 11.77Q267.95 11.67 267.95 11.25L267.95 11.25L267.95 4.14L267.95 4.14Q267.95 3.77 267.85 3.71L267.85 3.71L267.85 3.71Q267.74 3.64 267.23 3.64L267.23 3.64ZM278.52 7.83L278.52 7.83L278.52 7.83Q278.52 6.62 278.92 5.68L278.92 5.68L278.92 5.68Q279.34 4.72 280.03 4.12L280.03 4.12L280.03 4.12Q280.72 3.51 281.58 3.19L281.58 3.19L281.58 3.19Q282.42 2.88 283.37 2.88L283.37 2.88L283.37 2.88Q284.63 2.88 285.68 3.40L285.68 3.40L285.68 3.40Q286.76 3.93 287.47 5.07L287.47 5.07L287.47 5.07Q288.17 6.17 288.18 7.75L288.18 7.75L288.18 7.75Q288.18 8.70 287.87 9.54L287.87 9.54L287.87 9.54Q287.56 10.38 286.96 11.10L286.96 11.10L286.96 11.10Q286.35 11.81 285.41 12.22L285.41 12.22L285.41 12.22Q284.45 12.63 283.26 12.64L283.26 12.64L283.26 12.64Q282.13 12.64 281.19 12.23L281.19 12.23L281.19 12.23Q280.25 11.83 279.69 11.14L279.69 11.14L279.69 11.14Q279.12 10.45 278.82 9.60L278.82 9.60L278.82 9.60Q278.52 8.72 278.52 7.83ZM279.77 7.38L279.77 7.38L279.77 7.38Q279.77 8.52 280.21 9.60L280.21 9.60L280.21 9.60Q280.61 10.64 281.54 11.33L281.54 11.33L281.54 11.33Q282.45 12.03 283.64 12.04L283.64 12.04L283.64 12.04Q285.01 12.04 285.95 11.01L285.95 11.01L285.95 11.01Q286.90 9.97 286.90 8.10L286.90 8.10L286.90 8.10Q286.90 5.99 285.74 4.72L285.74 4.72L285.74 4.72Q284.59 3.46 283.08 3.45L283.08 3.45L283.08 3.45Q282.56 3.45 282.01 3.65L282.01 3.65L282.01 3.65Q281.47 3.85 280.96 4.25L280.96 4.25L280.96 4.25Q280.42 4.68 280.10 5.48L280.10 5.48L280.10 5.48Q279.77 6.27 279.77 7.38ZM296.30 3.64L296.29 3.08L298.46 3.08L304.20 10.48L304.20 4.14L304.20 4.14Q304.20 3.81 304.05 3.72L304.05 3.72L304.05 3.72Q303.89 3.64 303.43 3.64L303.43 3.64L302.94 3.64L302.97 3.08L305.95 3.08L305.95 3.64L305.63 3.64L305.63 3.64Q305.16 3.64 305.01 3.75L305.01 3.75L305.01 3.75Q304.86 3.86 304.86 4.25L304.86 4.25L304.86 12.32L304.86 12.47L304.86 12.47Q304.86 12.52 304.85 12.57L304.85 12.57L304.85 12.57Q304.83 12.61 304.80 12.64L304.80 12.64L304.80 12.64Q304.79 12.65 304.73 12.65L304.73 12.65L304.54 12.65L304.48 12.65L304.45 12.65L304.42 12.64L304.42 12.64Q304.40 12.64 304.38 12.63L304.38 12.63L304.38 12.63Q304.37 12.61 304.37 12.60L304.37 12.60L304.37 12.60Q304.37 12.58 304.36 12.57L304.36 12.57L304.36 12.57Q304.33 12.54 304.30 12.50L304.30 12.50L304.30 12.50Q304.29 12.48 304.27 12.45L304.27 12.45L304.27 12.45Q304.25 12.41 304.23 12.40L304.23 12.40L298.13 4.56L298.20 11.22L298.20 11.22Q298.20 11.67 298.36 11.77L298.36 11.77L298.36 11.77Q298.52 11.87 299.23 11.87L299.23 11.87L299.47 11.87L299.47 12.41L296.53 12.41L296.53 11.87L296.95 11.87L296.95 11.87Q297.33 11.87 297.44 11.76L297.44 11.76L297.44 11.76Q297.53 11.66 297.54 11.25L297.54 11.25L297.54 3.80L297.40 3.64L296.30 3.64ZM313.70 12.41L313.69 11.87L313.86 11.87L313.86 11.87Q314.25 11.87 314.38 11.73L314.38 11.73L314.38 11.73Q314.50 11.57 314.84 10.83L314.84 10.83L315.75 8.82L316.32 7.53L316.32 7.53Q316.59 6.97 316.63 6.86L316.63 6.86L316.63 6.86Q316.70 6.70 316.75 6.60L316.75 6.60L316.75 6.60Q316.80 6.51 316.81 6.45L316.81 6.45L316.91 6.21L318.34 2.74L318.63 2.74L318.63 2.74Q319.48 4.98 321.67 10.25L321.67 10.25L321.67 10.25Q322.12 11.34 322.31 11.64L322.31 11.64L322.31 11.64Q322.45 11.87 322.89 11.87L322.89 11.87L323.10 11.87L323.09 12.41L319.89 12.41L319.91 11.87L320.33 11.87L320.33 11.87Q320.94 11.87 320.94 11.70L320.94 11.70L320.94 11.70Q320.94 11.63 320.80 11.27L320.80 11.27L319.76 8.72L316.52 8.72L315.41 11.18L315.41 11.18Q315.27 11.50 315.27 11.63L315.27 11.63L315.27 11.63Q315.27 11.79 315.37 11.83L315.37 11.83L315.37 11.83Q315.46 11.87 315.85 11.87L315.85 11.87L316.42 11.87L316.42 12.41L313.70 12.41ZM318.20 4.79L316.78 8.10L319.53 8.10L318.20 4.79ZM331.17 3.64L330.78 3.64L330.79 3.08L334.01 3.08L334.01 3.08Q335.15 3.08 335.75 3.21L335.75 3.21L335.75 3.21Q336.39 3.37 336.85 3.75L336.85 3.75L336.85 3.75Q337.86 4.57 337.86 5.71L337.86 5.71L337.86 5.71Q337.86 6.43 337.39 7.04L337.39 7.04L337.39 7.04Q336.90 7.66 335.86 7.92L335.86 7.92L338.55 11.49L338.55 11.49Q338.86 11.87 339.15 11.87L339.15 11.87L339.75 11.87L339.78 12.41L337.75 12.41L334.76 8.10L334.58 8.10L334.58 8.10Q334.54 8.10 334.49 8.11L334.49 8.11L334.49 8.11Q334.43 8.11 334.42 8.11L334.42 8.11L334.42 8.11Q333.54 8.11 333.14 8.03L333.14 8.03L333.14 11.46L333.14 11.46Q333.14 11.76 333.29 11.81L333.29 11.81L333.29 11.81Q333.41 11.87 334.11 11.87L334.11 11.87L334.82 11.87L334.80 12.41L331.07 12.41L331.07 11.87L331.39 11.87L331.39 11.87Q331.86 11.87 331.93 11.81L331.93 11.81L331.93 11.81Q332.01 11.74 332.01 11.46L332.01 11.46L332.01 4.14L332.01 4.14Q332.01 3.82 331.82 3.73L331.82 3.73L331.82 3.73Q331.59 3.64 331.17 3.64L331.17 3.64ZM333.14 4.28L333.14 7.57L333.14 7.57Q333.33 7.70 334.04 7.71L334.04 7.71L334.04 7.71Q335.31 7.71 335.89 7.27L335.89 7.27L335.89 7.27Q336.48 6.84 336.48 5.92L336.48 5.92L336.48 5.92Q336.48 4.92 335.71 4.27L335.71 4.27L335.71 4.27Q334.95 3.64 333.57 3.64L333.57 3.64L333.57 3.64Q333.31 3.64 333.23 3.75L333.23 3.75L333.23 3.75Q333.15 3.84 333.14 4.28L333.14 4.28ZM347.68 3.64L347.68 3.64L347.69 3.08L350.83 3.08L350.83 3.64L350.55 3.64L350.55 3.64Q350.10 3.64 349.99 3.66L349.99 3.66L349.99 3.66Q349.82 3.71 349.82 3.82L349.82 3.82L349.82 3.82Q349.82 3.89 350.07 4.31L350.07 4.31L352.07 7.46L354.52 3.99L354.52 3.99Q354.60 3.83 354.61 3.82L354.61 3.82L354.61 3.82Q354.61 3.64 353.69 3.64L353.69 3.64L353.47 3.64L353.46 3.08L356.00 3.08L356.00 3.64L355.93 3.64L355.93 3.64Q355.58 3.64 355.44 3.72L355.44 3.72L355.44 3.72Q355.28 3.80 355.00 4.22L355.00 4.22L352.27 8.17L352.27 11.22L352.27 11.22Q352.27 11.66 352.38 11.77L352.38 11.77L352.38 11.77Q352.47 11.87 353.09 11.87L353.09 11.87L353.73 11.87L353.71 12.41L349.77 12.41L349.79 11.87L350.35 11.87L350.35 11.87Q350.88 11.87 351.01 11.79L351.01 11.79L351.01 11.79Q351.13 11.70 351.13 11.25L351.13 11.25L351.13 8.06L348.84 4.49L348.84 4.49Q348.42 3.84 348.29 3.73L348.29 3.73L348.29 3.73Q348.18 3.64 347.68 3.64Z"></path></g></svg>